<svg width="533" height="399" viewBox="0 0 533 399" fill="none" xmlns="http://www.w3.org/2000/svg">
<path d="M361.374 94.563C361.441 95.5938 361.474 96.6245 361.541 97.622C361.541 97.8215 361.674 98.0875 361.907 98.0875C389.956 101.945 418.239 98.686 446.388 98.7525C454.35 98.7525 462.278 99.0518 470.206 99.8165C470.406 99.8498 470.639 99.6503 470.673 99.4508C470.939 98.0875 471.239 96.7243 471.505 95.361C471.639 94.7293 470.673 94.4633 470.539 95.095C470.273 96.4583 469.973 97.8215 469.707 99.1848C469.873 99.0518 470.04 98.952 470.173 98.819C442.29 96.0925 414.308 99.5173 386.359 98.9188C378.264 98.7525 370.169 98.2205 362.141 97.1233C362.274 97.2895 362.374 97.4558 362.507 97.5888C362.44 96.558 362.407 95.5273 362.34 94.5298C362.34 93.9313 361.341 93.9313 361.374 94.563Z" fill="#919B9B"/>
<path d="M362.207 95.0619C390.389 95.0619 418.605 95.0619 446.787 95.0619C454.782 95.0619 462.777 95.0619 470.772 95.0619C471.405 95.0619 471.405 94.0645 470.772 94.0645C442.59 94.0645 414.374 94.0645 386.192 94.0645C378.197 94.0645 370.202 94.0645 362.207 94.0645C361.574 94.0645 361.574 95.0619 362.207 95.0619Z" fill="#919B9B"/>
<path d="M368.27 94.2641C369.102 82.3274 369.802 70.3574 370.835 58.4539C370.968 56.8911 371.134 55.3616 371.401 53.8321C371.501 53.2669 371.534 52.1031 371.867 51.6376C372.3 51.0391 373.233 51.0391 373.899 50.9394C375.432 50.6734 377.997 49.7424 379.063 51.3051C379.363 51.7706 379.429 52.7349 379.529 53.3001C379.729 54.2976 379.862 55.2951 379.962 56.2926C380.495 62.1446 379.729 68.0964 379.296 73.9484C378.796 80.7314 378.297 87.5144 377.797 94.2974C377.764 94.9291 378.763 94.9291 378.796 94.2974C379.529 84.5884 380.329 74.9126 380.928 65.2036C381.195 60.7481 381.328 56.1929 380.229 51.8039C379.929 50.5736 379.463 49.5429 378.063 49.4099C375.931 49.2436 373.466 49.9751 371.401 50.4074C371.234 50.4406 371.101 50.6069 371.068 50.7399C369.302 57.6226 369.369 65.0374 368.869 72.0864C368.336 79.4679 367.836 86.8826 367.303 94.2641C367.237 94.8959 368.236 94.8959 368.27 94.2641Z" fill="#919B9B"/>
<path d="M380.662 64.2391C384.726 74.4469 389.023 84.5549 393.521 94.5631C393.787 95.1616 394.653 94.6296 394.387 94.0644C389.923 84.1226 385.659 74.0811 381.628 63.9731C381.395 63.3746 380.429 63.6406 380.662 64.2391Z" fill="#919B9B"/>
<path d="M381.528 58.8858C382.361 56.5251 384.926 55.2283 387.325 55.8933C387.958 56.0596 388.224 55.0953 387.591 54.9291C384.66 54.0978 381.562 55.7603 380.562 58.6198C380.362 59.2516 381.328 59.4843 381.528 58.8858Z" fill="#919B9B"/>
<path d="M387.324 56.0927C393.92 68.8607 400.483 81.6619 407.079 94.4299C407.378 94.9952 408.245 94.4964 407.945 93.9312C401.349 81.1632 394.786 68.3619 388.191 55.5939C387.891 54.9954 387.025 55.4942 387.324 56.0927Z" fill="#919B9B"/>
<path d="M404.681 47.5143C405.746 62.9756 406.812 78.4368 407.845 93.8981C407.878 94.5298 408.878 94.5298 408.845 93.8981C407.779 78.4368 406.713 62.9756 405.68 47.5143C405.647 46.8826 404.647 46.8826 404.681 47.5143Z" fill="#919B9B"/>
<path d="M405.547 48.0463C407.246 46.5168 409.544 46.5168 411.676 46.8826C412.542 47.0156 413.475 47.1818 414.308 47.4811C415.84 48.0463 415.607 49.4428 415.674 50.8061C415.874 55.5608 416.04 60.3156 416.24 65.0703C416.606 74.6796 417.006 84.3221 417.373 93.9313C417.406 94.5631 418.405 94.5631 418.372 93.9313C417.906 82.4268 417.472 70.9223 417.006 59.4511C416.906 56.5916 416.773 53.6988 416.673 50.8393C416.606 49.3763 416.806 47.5808 415.274 46.7828C413.675 45.9516 411.21 45.6523 409.411 45.6856C407.679 45.7188 406.146 46.1843 404.88 47.3481C404.381 47.7471 405.08 48.4786 405.547 48.0463Z" fill="#919B9B"/>
<path d="M388.124 55.5275C391.289 55.727 394.387 56.658 397.418 57.5225C400.216 58.3205 402.948 59.318 405.313 61.0471C405.846 61.4128 406.346 60.5483 405.813 60.1825C403.348 58.4203 400.55 57.3895 397.651 56.5583C394.52 55.6605 391.355 54.7628 388.091 54.53C387.458 54.4635 387.458 55.461 388.124 55.5275Z" fill="#919B9B"/>
<path d="M416.84 53.7655C418.305 53.3997 419.938 53.034 421.47 53.3332C423.735 53.7987 424.202 55.7937 424.302 57.822C424.468 61.9117 424.535 65.9682 424.635 70.058C424.835 78.1045 424.935 86.151 424.968 94.1975C424.968 94.8292 425.967 94.8292 425.967 94.1975C425.934 84.5882 425.801 75.0122 425.534 65.4362C425.468 63.1087 425.401 60.8145 425.334 58.487C425.268 56.9575 425.301 55.2617 424.368 53.965C422.636 51.5377 419.072 52.1362 416.606 52.768C415.94 52.9675 416.207 53.9317 416.84 53.7655Z" fill="#919B9B"/>
<path d="M424.135 48.5119C424.135 51.5044 424.135 54.4637 424.135 57.4562C424.135 58.0879 425.134 58.0879 425.134 57.4562C425.134 54.4637 425.134 51.5044 425.134 48.5119C425.134 47.8801 424.135 47.8801 424.135 48.5119Z" fill="#919B9B"/>
<path d="M425.6 48.8774C425.867 48.9771 426.166 49.0769 426.433 49.1766C426.466 49.4094 426.5 49.6421 426.533 49.9081C426.6 50.4401 426.6 51.0054 426.666 51.5706C426.733 52.4351 426.799 53.3329 426.866 54.1974C426.999 56.0594 427.099 57.9546 427.199 59.8166C427.432 63.6736 427.599 67.5306 427.732 71.3876C428.032 79.0019 428.132 86.6161 428.132 94.2304C428.132 94.8622 429.131 94.8622 429.131 94.2304C429.131 84.7541 428.931 75.2446 428.498 65.7684C428.265 61.1466 427.999 56.5249 427.666 51.9031C427.599 50.7726 427.799 48.7111 426.766 47.9131C426.067 47.3811 425.101 47.5806 424.734 48.3786C424.501 48.9771 425.334 49.4759 425.6 48.8774Z" fill="#919B9B"/>
<path d="M376.498 99.4509C377.53 101.18 378.53 103.773 380.195 105.004C381.828 106.234 383.827 105.137 385.625 105.768C386.225 105.968 386.492 105.004 385.892 104.804C384.293 104.239 382.427 105.137 380.995 104.239C379.363 103.241 378.33 100.548 377.364 98.9189C377.031 98.3869 376.165 98.8857 376.498 99.4509Z" fill="#919B9B"/>
<path d="M386.958 99.883C386.825 101.612 386.292 103.175 385.426 104.638C385.092 105.203 385.959 105.702 386.292 105.136C387.291 103.507 387.824 101.745 387.957 99.883C388.024 99.2512 387.025 99.2512 386.958 99.883Z" fill="#919B9B"/>
<path d="M384.127 100.714C384.427 102.244 384.726 103.773 385.06 105.303C385.193 105.934 386.159 105.668 386.026 105.037C385.726 103.507 385.426 101.978 385.093 100.448C384.96 99.8164 383.994 100.082 384.127 100.714Z" fill="#919B9B"/>
<path d="M385.325 100.681C385.392 100.681 385.459 100.714 385.525 100.748C385.625 100.947 385.625 101.146 385.592 101.346C385.559 101.579 385.459 101.811 385.392 102.044C385.259 102.51 385.226 102.942 385.359 103.407C385.559 104.039 386.425 103.773 386.325 103.141C386.158 102.244 386.292 101.346 386.658 100.515C386.325 100.481 385.992 100.415 385.692 100.382C385.592 101.412 385.525 102.476 385.425 103.507C385.359 104.139 386.358 104.139 386.425 103.507C386.525 102.476 386.591 101.412 386.691 100.382C386.758 99.7833 385.892 99.7833 385.725 100.249C385.292 101.279 385.226 102.343 385.392 103.407C385.725 103.308 386.025 103.241 386.358 103.141C386.058 102.144 387.224 100.914 386.225 100.016C385.625 99.484 384.659 99.6835 384.426 100.448C384.16 101.047 385.126 101.313 385.325 100.681Z" fill="#919B9B"/>
<path d="M437.527 93.3993C437.227 92.169 437.093 90.972 437.193 89.7085C437.027 89.8748 436.86 90.041 436.694 90.2073C442.59 89.908 448.486 89.5423 454.383 89.4093C457.347 89.3428 460.312 89.3428 463.277 89.4093C463.943 89.4093 464.61 89.4425 465.242 89.4425C465.909 89.4758 467.275 89.243 467.874 89.5423C469.207 90.174 468.64 92.7343 468.64 93.898C468.64 94.5298 469.64 94.5298 469.64 93.898C469.64 92.3353 470.439 89.0103 468.307 88.578C466.842 88.2788 465.109 88.445 463.61 88.4118C461.745 88.3785 459.879 88.3453 458.014 88.3785C450.918 88.4118 443.823 88.844 436.694 89.2098C436.427 89.2098 436.194 89.4425 436.194 89.7085C436.127 91.0718 436.227 92.3685 436.594 93.6653C436.694 94.297 437.66 94.031 437.527 93.3993Z" fill="#919B9B"/>
<path d="M441.224 83.391C441.624 85.2197 441.924 87.0485 442.057 88.9105C442.09 89.5422 443.09 89.5422 443.056 88.9105C442.923 86.9487 442.623 85.0202 442.19 83.125C442.057 82.5265 441.091 82.7925 441.224 83.391Z" fill="#919B9B"/>
<path d="M441.89 84.0231C445.921 83.6906 449.952 83.3248 453.983 83.4911C457.78 83.6573 461.611 84.8876 465.409 84.4886C465.242 84.3223 465.076 84.1561 464.909 83.9898C464.776 85.7521 464.976 87.4146 465.542 89.1103C465.742 89.7088 466.708 89.4428 466.508 88.8443C465.975 87.2483 465.775 85.6856 465.908 83.9898C465.942 83.7238 465.675 83.4578 465.409 83.4911C461.611 83.8568 457.78 82.6266 453.983 82.4936C449.952 82.3273 445.888 82.6931 441.89 83.0256C441.257 83.0588 441.257 84.0563 441.89 84.0231Z" fill="#919B9B"/>
<path d="M407.979 187.197C407.979 188.594 407.979 189.957 407.979 191.354C407.979 191.985 408.978 191.985 408.978 191.354C408.978 189.957 408.978 188.594 408.978 187.197C408.978 186.566 407.979 186.566 407.979 187.197Z" fill="#919B9B"/>
<path d="M408.478 186.865C434.395 186.865 460.312 186.865 486.23 186.865C486.863 186.865 486.863 185.868 486.23 185.868C460.312 185.868 434.395 185.868 408.478 185.868C407.812 185.868 407.812 186.865 408.478 186.865Z" fill="#919B9B"/>
<path d="M409.277 191.454C434.795 191.454 460.279 191.454 485.796 191.454C486.429 191.454 486.429 190.456 485.796 190.456C460.279 190.456 434.795 190.456 409.277 190.456C408.645 190.456 408.645 191.454 409.277 191.454Z" fill="#919B9B"/>
<path d="M485.729 187.197C485.729 188.162 485.729 189.126 485.729 190.09C485.729 190.722 486.729 190.722 486.729 190.09C486.729 189.126 486.729 188.162 486.729 187.197C486.729 186.566 485.729 186.566 485.729 187.197Z" fill="#919B9B"/>
<path d="M415.674 175.992C416.54 179.417 417.339 182.875 418.005 186.333C418.139 186.965 419.105 186.699 418.971 186.067C418.305 182.609 417.539 179.151 416.64 175.726C416.473 175.095 415.507 175.361 415.674 175.992Z" fill="#919B9B"/>
<path d="M432.996 175.693C432.197 179.118 431.53 182.543 431.031 186.001C430.931 186.633 431.897 186.899 431.997 186.267C432.496 182.809 433.163 179.351 433.962 175.959C434.095 175.328 433.129 175.062 432.996 175.693Z" fill="#919B9B"/>
<path d="M412.942 174.13C413.009 175.859 415.607 175.726 416.873 175.793C419.738 175.926 422.636 175.494 425.501 175.327C426.933 175.228 428.366 175.194 429.798 175.327C430.964 175.427 432.23 175.826 433.362 175.593C434.628 175.327 435.428 174.13 434.695 172.967C434.362 172.435 433.496 172.933 433.829 173.465C434.762 175.028 431.597 174.529 431.297 174.496C430.597 174.396 429.865 174.33 429.165 174.297C427.533 174.197 425.867 174.297 424.235 174.43C423.169 174.496 413.975 175.593 413.941 174.13C413.941 173.465 412.942 173.465 412.942 174.13Z" fill="#919B9B"/>
<path d="M414.108 173.997C413.508 172.135 418.672 172.335 419.538 172.302C421.07 172.235 422.636 172.169 424.168 172.102C425.001 172.069 433.662 171.836 433.429 172.468C433.229 173.066 434.195 173.332 434.395 172.734C435.395 169.775 424.568 171.071 423.169 171.138C420.571 171.238 417.672 171.005 415.141 171.504C413.808 171.77 412.676 172.767 413.142 174.23C413.342 174.862 414.308 174.596 414.108 173.997Z" fill="#919B9B"/>
<path d="M418.538 171.237C417.006 170.539 415.64 169.542 414.574 168.278C414.141 167.746 411.076 163.324 412.875 163.058C413.175 163.025 413.341 162.559 413.175 162.327C412.209 160.93 411.809 159.135 411.309 157.539C410.743 155.81 410.21 154.081 409.644 152.385C409.544 152.019 409.377 151.687 409.311 151.321C409.144 150.623 409.044 150.623 409.877 150.556C410.776 150.49 411.243 151.188 411.842 151.786C412.975 152.917 413.974 154.147 414.874 155.444C418.238 160.298 420.104 166.017 421.503 171.703C421.67 172.335 422.636 172.069 422.469 171.437C420.67 164.188 418.039 156.741 412.709 151.254C411.976 150.49 410.577 148.727 409.344 148.927C408.411 149.093 408.145 150.091 408.211 150.922C408.345 152.784 409.344 154.812 409.944 156.608C410.61 158.669 411.043 161.063 412.309 162.858C412.409 162.626 412.509 162.36 412.609 162.127C410.41 162.46 411.676 165.518 412.275 166.715C413.541 169.143 415.573 171.005 418.039 172.168C418.605 172.368 419.105 171.503 418.538 171.237Z" fill="#919B9B"/>
<path d="M419.671 162.127C419.571 157.904 419.471 153.515 420.903 149.492C421.603 147.53 422.669 145.768 423.901 144.106C424.201 143.673 424.534 142.975 425.001 142.709C425.334 142.177 425.834 142.111 426.467 142.543C427.266 142.343 427.666 142.543 427.666 143.141C428.066 144.039 427.932 145.569 427.932 146.5C427.932 148.727 427.399 150.789 426.866 152.917C426.666 153.648 426.5 154.413 426.566 155.145C426.633 156.009 427.099 156.674 427.333 157.472C427.999 159.733 426.833 162.061 426.033 164.122C425.234 166.283 424.401 168.445 423.602 170.639C423.368 171.238 424.335 171.504 424.568 170.905C425.634 168.046 426.766 165.219 427.766 162.327C428.465 160.298 428.798 158.536 427.999 156.541C426.933 153.848 428.632 150.822 428.865 148.062C428.998 146.267 429.298 143.208 428.132 141.612C425.6 138.121 421.57 145.569 420.77 147.231C418.505 151.886 418.538 157.106 418.672 162.16C418.705 162.792 419.704 162.792 419.671 162.127Z" fill="#919B9B"/>
<path d="M411.277 153.947C414.574 158.569 416.54 164.122 418.838 169.276C419.105 169.874 419.971 169.342 419.705 168.777C417.439 163.59 415.441 158.07 412.143 153.449C411.776 152.917 410.91 153.415 411.277 153.947Z" fill="#919B9B"/>
<path d="M420.471 151.587C420.604 153.349 421.203 154.912 422.303 156.275C422.703 156.774 423.402 156.075 423.002 155.577C422.103 154.413 421.57 153.05 421.47 151.587C421.437 150.955 420.437 150.955 420.471 151.587Z" fill="#919B9B"/>
<path d="M425.001 151.354C425.8 150.157 426.633 148.96 427.432 147.763C427.799 147.231 426.933 146.732 426.566 147.264C425.767 148.461 424.934 149.658 424.134 150.855C423.801 151.387 424.668 151.886 425.001 151.354Z" fill="#919B9B"/>
<path d="M434.928 150.689C434.095 152.019 432.896 153.05 431.796 154.114C430.597 155.244 429.398 156.408 428.199 157.538C427.732 157.971 428.432 158.702 428.898 158.237C431.197 156.042 434.095 153.914 435.794 151.188C436.127 150.656 435.261 150.157 434.928 150.689Z" fill="#919B9B"/>
<path d="M434.495 152.019C434.562 153.781 437.493 157.04 435.228 158.104C434.928 158.27 434.928 158.669 435.128 158.902C435.894 159.833 435.394 161.229 435.294 162.327C435.195 163.557 435.294 164.787 434.961 165.984C434.362 168.278 432.23 169.642 430.331 170.839C429.798 171.171 430.298 172.036 430.831 171.703C433.129 170.24 435.494 168.578 436.027 165.718C436.294 164.189 436.294 162.593 436.427 161.063C436.56 159.966 436.527 159.101 435.794 158.237C435.761 158.503 435.728 158.769 435.694 159.035C438.859 157.539 435.528 154.147 435.461 152.086C435.461 151.387 434.462 151.387 434.495 152.019Z" fill="#919B9B"/>
<path d="M432.896 156.907C430.597 160.598 428.632 164.455 426.999 168.511C426.766 169.11 427.732 169.376 427.965 168.777C429.564 164.82 431.497 161.03 433.762 157.406C434.095 156.84 433.229 156.342 432.896 156.907Z" fill="#919B9B"/>
<path d="M417.439 182.808C418.772 184.604 420.604 185.834 422.802 186.3C423.435 186.433 423.702 185.468 423.069 185.335C421.137 184.936 419.471 183.906 418.305 182.31C417.939 181.811 417.073 182.31 417.439 182.808Z" fill="#919B9B"/>
<path d="M416.873 178.719C420.304 181.345 423.935 185.103 428.333 186C428.965 186.133 429.232 185.169 428.599 185.036C424.335 184.172 420.737 180.414 417.373 177.854C416.873 177.455 416.373 178.32 416.873 178.719Z" fill="#919B9B"/>
<path d="M419.504 176.192C421.57 177.888 423.569 179.617 425.667 181.246C426.567 181.944 427.499 182.609 428.599 183.041C429.631 183.474 430.731 183.673 431.663 184.338C432.196 184.704 432.696 183.839 432.163 183.474C431.43 182.975 430.697 182.742 429.898 182.443C428.532 181.977 427.433 181.346 426.3 180.448C424.235 178.852 422.236 177.156 420.237 175.494C419.704 175.095 419.005 175.793 419.504 176.192Z" fill="#919B9B"/>
<path d="M424.968 175.727C426.9 177.722 429.232 179.185 431.897 180.049C432.496 180.249 432.763 179.284 432.163 179.085C429.665 178.254 427.499 176.89 425.667 174.995C425.234 174.563 424.501 175.261 424.968 175.727Z" fill="#919B9B"/>
<path d="M449.486 185.402C449.286 184.87 448.986 184.172 449.019 183.606C449.152 182.143 450.152 182.01 451.118 181.844C452.517 181.578 453.983 181.545 455.415 181.545C457.847 181.512 460.312 181.711 462.744 181.811C465.176 181.877 467.574 181.744 470.006 181.545C471.006 181.445 472.771 181.046 473.737 181.379C474.737 181.744 475.003 182.243 475.036 183.174C475.07 183.906 475.07 184.637 475.103 185.402C475.136 186.034 476.136 186.034 476.102 185.402C476.069 184.271 476.402 182.276 475.836 181.212C475.303 180.281 474.07 180.381 473.138 180.381C469.34 180.381 465.642 180.946 461.811 180.78C458.28 180.647 454.716 180.348 451.218 180.88C448.353 181.312 447.62 183.074 448.586 185.734C448.719 186.266 449.685 186 449.486 185.402Z" fill="#919B9B"/>
<path d="M456.548 180.049C456.814 179.45 457.047 178.852 457.314 178.253C457.614 178.22 457.913 178.187 458.213 178.12C458.613 178.087 458.979 178.12 459.379 178.087C460.245 178.087 461.078 178.054 461.944 178.054C463.776 178.021 465.575 178.021 467.408 177.987C469.107 177.954 470.839 177.954 472.538 177.921C472.971 177.921 473.404 177.921 473.837 177.888C474.37 177.888 474.536 177.755 474.703 178.154C474.903 178.652 474.536 180.049 474.47 180.581C474.403 181.213 475.403 181.213 475.469 180.581C475.536 179.783 476.036 178.12 475.636 177.389C475.303 176.79 474.803 176.89 474.137 176.89C470.939 176.89 467.707 176.99 464.509 177.023C463.01 177.056 461.511 177.056 460.012 177.09C458.88 177.09 457.48 176.957 456.448 177.489C455.248 178.12 454.682 179.75 455.848 180.714C456.348 181.146 457.047 180.448 456.548 180.049Z" fill="#919B9B"/>
<path d="M463.41 175.992C462.544 174.828 466.175 174.961 466.408 174.928C467.208 174.862 469.939 174.363 469.406 176.158C469.207 176.79 470.173 177.023 470.373 176.424C470.606 175.626 470.339 174.895 469.706 174.363C468.607 173.465 467.241 173.897 465.942 173.964C464.909 173.997 463.677 173.665 462.844 174.463C462.244 174.995 462.078 175.826 462.544 176.491C462.944 176.99 463.81 176.491 463.41 175.992Z" fill="#919B9B"/>
<path d="M412.442 192.185C413.708 193.914 415.207 195.344 416.973 196.541C417.506 196.906 418.005 196.042 417.472 195.676C415.873 194.579 414.441 193.249 413.308 191.653C412.909 191.154 412.043 191.653 412.442 192.185Z" fill="#919B9B"/>
<path d="M416.839 196.208C417.939 196.208 419.038 196.208 420.137 196.208C420.77 196.208 421.803 196.375 422.369 196.075C422.802 195.843 422.936 195.311 423.135 194.912C423.668 193.848 424.301 192.85 425.034 191.886C425.434 191.387 424.735 190.689 424.335 191.188C423.968 191.62 423.635 192.085 423.302 192.551C422.902 193.183 422.636 194.08 422.169 194.646C421.237 195.743 418.205 195.244 416.839 195.211C416.207 195.211 416.207 196.208 416.839 196.208Z" fill="#919B9B"/>
<path d="M420.537 192.118C420.803 193.116 421.07 194.147 421.37 195.144C421.536 195.776 422.502 195.51 422.336 194.878C422.069 193.881 421.803 192.85 421.503 191.852C421.336 191.221 420.37 191.487 420.537 192.118Z" fill="#919B9B"/>
<path d="M461.145 191.953C461.678 193.05 462.244 194.114 462.944 195.111C463.31 195.643 463.777 196.474 464.41 196.774C465.076 197.106 466.009 196.84 466.675 196.774C467.874 196.641 469.073 196.541 470.273 196.408C470.906 196.342 470.906 195.344 470.273 195.411C469.473 195.477 468.674 195.577 467.874 195.643C467.175 195.71 466.142 196.009 465.476 195.876C463.744 195.543 462.678 192.817 462.011 191.421C461.711 190.855 460.845 191.354 461.145 191.953Z" fill="#919B9B"/>
<path d="M470.306 191.121C469.907 192.551 469.707 194.014 469.74 195.477C469.773 196.109 470.773 196.109 470.739 195.477C470.706 194.08 470.873 192.717 471.239 191.387C471.439 190.789 470.473 190.523 470.306 191.121Z" fill="#919B9B"/>
<path d="M470.739 195.976C472.072 194.712 473.338 193.382 474.57 192.019C475.003 191.553 474.304 190.822 473.871 191.321C472.638 192.684 471.372 194.014 470.04 195.277C469.573 195.71 470.273 196.408 470.739 195.976Z" fill="#919B9B"/>
<path d="M256.806 94.5632C256.806 103.94 256.806 113.283 256.806 122.659C256.806 123.291 257.805 123.291 257.805 122.659C257.805 113.283 257.805 103.94 257.805 94.5632C257.805 93.9314 256.806 93.9314 256.806 94.5632Z" fill="#919B9B"/>
<path d="M257.606 123.424C269.498 123.424 281.424 123.424 293.317 123.424C293.95 123.424 293.95 122.427 293.317 122.427C281.424 122.427 269.498 122.427 257.606 122.427C256.939 122.427 256.939 123.424 257.606 123.424Z" fill="#919B9B"/>
<path d="M257.606 95.0619C269.165 95.0619 280.691 95.0619 292.251 95.0619C292.884 95.0619 292.884 94.0645 292.251 94.0645C280.691 94.0645 269.165 94.0645 257.606 94.0645C256.939 94.0645 256.939 95.0619 257.606 95.0619Z" fill="#919B9B"/>
<path d="M292.25 94.5632C292.25 103.94 292.25 113.283 292.25 122.659C292.25 123.291 293.25 123.291 293.25 122.659C293.25 113.283 293.25 103.94 293.25 94.5632C293.25 93.9314 292.25 93.9314 292.25 94.5632Z" fill="#919B9B"/>
<path d="M275.394 93.7318C275.361 93.2996 275.428 92.9006 275.628 92.5016C275.727 92.2688 276.127 91.6703 276.36 91.8366C276.627 92.0028 276.727 92.7676 276.76 93.0336C276.86 93.5323 276.86 94.0311 276.794 94.5298C276.727 95.1616 277.726 95.1616 277.793 94.5298C277.86 93.6653 277.793 92.8008 277.493 91.9696C277.293 91.4376 277.027 90.8058 276.394 90.7393C275.028 90.5731 274.328 92.6678 274.395 93.6986C274.428 94.3968 275.428 94.3968 275.394 93.7318Z" fill="#919B9B"/>
<path d="M258.705 97.7883C258.705 105.27 258.705 112.718 258.705 120.199C258.705 120.831 259.704 120.831 259.704 120.199C259.704 112.718 259.704 105.27 259.704 97.7883C259.704 97.1565 258.705 97.1565 258.705 97.7883Z" fill="#919B9B"/>
<path d="M259.205 120.698C269.665 120.698 280.125 120.698 290.585 120.698C291.218 120.698 291.218 119.7 290.585 119.7C280.125 119.7 269.665 119.7 259.205 119.7C258.572 119.7 258.572 120.698 259.205 120.698Z" fill="#919B9B"/>
<path d="M291.385 119.933C291.385 112.451 291.385 105.003 291.385 97.5222C291.385 96.8904 290.385 96.8904 290.385 97.5222C290.385 105.003 290.385 112.451 290.385 119.933C290.385 120.598 291.385 120.598 291.385 119.933Z" fill="#919B9B"/>
<path d="M259.471 98.5532C269.565 98.5532 279.659 98.5532 289.786 98.5532C290.419 98.5532 290.419 97.5557 289.786 97.5557C279.692 97.5557 269.598 97.5557 259.471 97.5557C258.838 97.5557 258.838 98.5532 259.471 98.5532Z" fill="#919B9B"/>
<path d="M259.638 115.411C263.535 114.247 267.499 113.216 271.364 115.012C274.129 116.309 276.527 118.27 279.625 118.836C280.258 118.935 280.525 118.004 279.892 117.871C276.361 117.206 273.696 114.646 270.331 113.516C266.7 112.319 262.902 113.383 259.371 114.447C258.772 114.646 259.038 115.61 259.638 115.411Z" fill="#919B9B"/>
<path d="M272.629 114.846C277.393 113.183 282.357 112.585 287.354 113.084C287.986 113.15 287.986 112.153 287.354 112.086C282.257 111.587 277.193 112.186 272.363 113.882C271.763 114.114 272.03 115.079 272.629 114.846Z" fill="#919B9B"/>
<path d="M273.662 107.132C273.296 106.5 273.396 105.569 274.029 105.137C274.595 104.738 275.495 104.904 275.894 105.436C276.294 106.001 276.061 106.899 275.428 107.231C274.695 107.597 273.862 106.899 273.862 106.167C273.862 105.536 272.863 105.536 272.863 106.167C272.83 107.497 274.195 108.628 275.528 108.262C276.761 107.93 277.427 106.367 276.894 105.236C276.361 104.039 274.762 103.607 273.629 104.206C272.397 104.871 272.097 106.5 272.763 107.664C273.129 108.196 273.962 107.697 273.662 107.132Z" fill="#919B9B"/>
<path d="M435.927 99.3842C437.126 100.98 437.36 103.141 438.825 104.538C440.191 105.868 441.823 105.668 443.489 105.07C444.089 104.87 443.822 103.906 443.223 104.106C442.323 104.405 441.29 104.737 440.358 104.372C439.558 104.039 439.025 103.308 438.625 102.543C437.992 101.313 437.626 99.9827 436.793 98.8522C436.394 98.3535 435.527 98.8522 435.927 99.3842Z" fill="#919B9B"/>
<path d="M443.356 104.671C444.955 103.308 446.354 101.745 447.553 100.016C447.92 99.4842 447.054 98.9855 446.687 99.5175C445.555 101.18 444.189 102.676 442.656 103.973C442.157 104.372 442.856 105.103 443.356 104.671Z" fill="#919B9B"/>
<path d="M440.924 99.0184C441.391 100.116 441.59 101.246 441.557 102.41C441.524 103.042 442.523 103.042 442.557 102.41C442.59 101.047 442.323 99.7499 441.79 98.5197C441.557 97.9212 440.691 98.4199 440.924 99.0184Z" fill="#919B9B"/>
<path d="M414.241 229.092C414.241 233.515 414.241 237.97 414.241 242.392C414.241 243.024 415.24 243.024 415.24 242.392C415.24 237.97 415.24 233.515 415.24 229.092C415.24 228.461 414.241 228.461 414.241 229.092Z" fill="#919B9B"/>
<path d="M402.082 244.221C413.841 244.221 425.634 244.221 437.393 244.221C438.026 244.221 438.026 243.224 437.393 243.224C425.634 243.224 413.841 243.224 402.082 243.224C401.449 243.224 401.449 244.221 402.082 244.221Z" fill="#919B9B"/>
<path d="M421.236 245.052C421.236 247.812 421.236 250.605 421.236 253.365C421.236 253.997 422.236 253.997 422.236 253.365C422.236 250.605 422.236 247.812 422.236 245.052C422.236 244.421 421.236 244.421 421.236 245.052Z" fill="#919B9B"/>
<path d="M401.749 254.861C412.176 254.861 422.636 254.861 433.063 254.861C433.696 254.861 433.696 253.864 433.063 253.864C422.636 253.864 412.176 253.864 401.749 253.864C401.116 253.864 401.116 254.861 401.749 254.861Z" fill="#919B9B"/>
<path d="M409.577 255.693C409.577 257.787 409.577 259.915 409.577 262.01C409.577 262.642 410.577 262.642 410.577 262.01C410.577 259.915 410.577 257.787 410.577 255.693C410.577 255.061 409.577 255.061 409.577 255.693Z" fill="#919B9B"/>
<path d="M412.909 94.696C412.909 93.2995 412.642 91.5372 412.909 90.174C413.275 88.2455 415.973 88.6112 417.539 88.5115C418.172 88.4782 418.172 87.4807 417.539 87.514C416.273 87.5805 414.941 87.5805 413.675 87.78C413.109 87.8797 412.609 88.046 412.276 88.5447C411.876 89.1432 411.943 89.9745 411.943 90.6727C411.943 92.0027 411.943 93.366 411.943 94.696C411.909 95.361 412.909 95.361 412.909 94.696Z" fill="#919B9B"/>
<path d="M407.045 57.5559C410.077 56.7247 413.108 56.9242 416.006 58.0879C416.606 58.3207 416.873 57.3564 416.273 57.1237C413.208 55.8934 409.977 55.7272 406.779 56.5917C406.146 56.7912 406.412 57.7554 407.045 57.5559Z" fill="#919B9B"/>
<path d="M405.813 54.5636C408.478 52.7349 411.676 52.4024 414.674 53.5994C415.274 53.8321 415.54 52.8679 414.941 52.6351C411.743 51.3384 408.145 51.7374 405.313 53.6991C404.78 54.0649 405.28 54.9294 405.813 54.5636Z" fill="#919B9B"/>
<path d="M394.986 71.9863C393.92 72.7178 391.888 73.6821 391.588 75.0786C391.455 75.8101 391.788 76.4751 392.055 77.1401C392.521 78.3038 392.988 79.4676 393.487 80.6313C395.419 85.1866 397.585 89.6421 399.983 93.9646C400.283 94.5298 401.149 94.0311 400.849 93.4658C399.017 90.1408 397.318 86.7493 395.753 83.2913C394.92 81.4626 394.12 79.6006 393.387 77.7386C392.954 76.6413 392.355 75.6771 393.154 74.5466C393.62 73.8816 394.82 73.3163 395.519 72.8508C396.019 72.4851 395.519 71.6206 394.986 71.9863Z" fill="#919B9B"/>
<path d="M254.907 234.944C252.175 236.973 248.877 240.231 247.678 244.886C246.812 248.344 247.645 250.372 247.345 254.828C247.145 257.92 246.346 262.276 243.781 267.463C237.951 266.266 228.157 265.102 216.598 267.762C209.702 269.358 204.172 271.852 200.108 274.113C200.741 274.512 201.607 274.977 202.706 275.277C208.936 276.972 215.498 271.752 215.698 272.118C215.898 272.45 208.369 275.975 208.769 279.034C209.036 281.095 212.733 282.193 216.564 283.356C219.796 284.321 222.86 285.252 226.958 284.786C232.588 284.154 236.485 281.328 238.217 279.865C239.883 280.696 242.348 281.794 245.446 282.758C251.143 284.487 259.004 286.881 264.234 283.622C267.632 281.494 268.665 276.507 270.597 266.598C272.929 254.529 274.028 248.477 270.897 243.523C266.8 236.906 258.371 235.377 254.907 234.944Z" fill="white" stroke="#161616" stroke-width="3" stroke-miterlimit="10"/>
<path d="M242.715 267.829C246.746 269.325 250.077 272.052 252.375 275.676C252.708 276.208 253.575 275.709 253.241 275.177C250.81 271.32 247.245 268.461 242.981 266.865C242.348 266.632 242.115 267.596 242.715 267.829Z" fill="#161616"/>
<path d="M221.262 274.379C217.297 275.044 214.099 277.704 212.667 281.428C212.434 282.026 213.4 282.292 213.633 281.694C214.932 278.302 217.93 275.942 221.528 275.343C222.161 275.243 221.894 274.279 221.262 274.379Z" fill="#161616"/>
<path d="M225.925 277.704C224.493 278.568 223.16 279.566 221.894 280.63C221.061 281.361 220.129 282.226 220.329 283.423C220.828 286.581 224.626 285.883 226.691 285.085C227.291 284.852 227.024 283.888 226.425 284.121C225.525 284.453 224.526 284.886 223.56 284.852C221.994 284.786 220.595 283.29 221.928 281.926C223.193 280.596 224.859 279.533 226.425 278.535C226.958 278.203 226.458 277.338 225.925 277.704Z" fill="#161616"/>
<path d="M285.987 194.014C284.288 194.579 282.123 195.443 279.691 196.64C278.992 196.973 277.226 197.871 275.327 199.101C272.396 200.963 270.264 202.925 267.832 205.385C264.734 208.544 261.603 211.703 257.872 216.757C254.74 221.013 249.877 227.696 246.379 237.505C244.98 241.395 244.18 244.753 243.714 247.147C245.546 246.083 247.212 245.551 248.511 245.252C256.006 243.556 263.202 247.347 270.031 250.904C272.596 252.234 274.628 253.531 276.027 254.429C276.76 250.838 277.493 247.214 278.226 243.623C278.859 240.597 279.458 237.538 280.091 234.512C281.057 233.681 282.356 232.451 283.789 230.855C286.487 227.796 291.85 221.711 292.583 213.265C293.483 203.523 287.686 196.075 285.987 194.014Z" fill="#EC615B"/>
<path d="M284.022 194.413C280.458 194.945 277.393 196.84 274.628 199.034C271.43 201.528 268.432 204.288 265.634 207.214C260.17 212.866 255.407 219.184 251.476 226C251.143 226.565 252.009 227.064 252.342 226.499C256.14 219.915 260.67 213.797 265.933 208.311C268.499 205.651 271.197 203.124 274.028 200.763C277.06 198.269 280.291 195.942 284.289 195.344C284.922 195.277 284.655 194.313 284.022 194.413Z" fill="#161616"/>
<path d="M282.623 230.721C280.158 233.215 277.626 235.642 275.061 238.003C274.595 238.435 275.294 239.134 275.761 238.701C278.326 236.341 280.857 233.913 283.323 231.42C283.756 230.954 283.056 230.256 282.623 230.721Z" fill="#161616"/>
<path d="M279.159 235.277C277.993 241.661 276.86 248.078 275.694 254.462C275.927 254.362 276.194 254.263 276.427 254.163C271.13 250.472 265.234 247.712 258.971 245.983C254.074 244.653 247.845 243.357 243.647 247.047C243.181 247.48 243.881 248.178 244.347 247.746C248.611 243.955 255.507 245.95 260.337 247.413C265.9 249.109 271.13 251.702 275.894 254.994C276.16 255.16 276.56 254.994 276.627 254.695C277.793 248.311 278.925 241.894 280.091 235.51C280.225 234.911 279.258 234.645 279.159 235.277Z" fill="#161616"/>
<path d="M251.709 225.535C248.245 232.285 243.914 239.234 243.614 247.048C243.581 247.679 244.58 247.679 244.613 247.048C244.913 239.433 249.177 232.65 252.575 226.034C252.842 225.468 251.976 224.97 251.709 225.535Z" fill="#161616"/>
<path opacity="0.4" d="M281.324 212.966C275.361 224.803 272.13 234.778 270.231 241.761C267.466 252.002 266.5 260.082 259.338 266.798C258.172 267.895 254.741 271.054 249.344 273.016C238.018 277.106 229.623 271.586 222.494 277.438C221.695 278.103 219.33 279.766 219.596 281.661C219.863 283.456 222.328 284.387 222.694 284.554C225.626 285.684 228.657 284.52 232.455 282.991C236.752 281.262 236.286 280.663 238.218 280.331C242.282 279.633 244.147 282.193 249.544 283.889C251.843 284.587 258.638 286.715 263.535 283.889C267.133 281.794 268.232 277.87 269.965 271.254C271.164 266.765 272.396 260.215 272.196 251.969C273.529 252.999 274.861 254.03 276.194 255.061C277.926 241.029 279.625 226.998 281.324 212.966Z" fill="#3D3D3D"/>
<path opacity="0.38" d="M279.325 227.363C274.761 235.975 272.529 243.257 271.33 248.178C268.932 258.053 269.698 262.708 266.433 269.657C262.935 277.205 257.272 281.993 253.341 284.719C255.54 285.218 260.837 286.149 264.668 283.157C267.366 281.062 268.065 278.069 269.098 273.182C270.397 267.163 271.763 260.314 273.096 252.8C274.128 253.465 275.161 254.13 276.194 254.795C277.26 245.684 278.292 236.507 279.325 227.363Z" fill="#3D3D3D"/>
<path d="M285.289 193.349C284.089 201.162 282.923 209.043 281.791 216.956C277.394 247.646 273.596 277.804 270.398 307.463C270.465 308.46 270.731 310.056 271.73 311.652C272.73 313.281 274.062 314.113 274.695 314.545C280.758 318.867 283.79 321.062 286.854 322.525C301.545 329.607 317.802 328.776 317.802 328.776C321.233 328.61 328.062 328.177 335.391 325.251C335.79 325.085 338.589 323.788 344.185 321.162C349.249 318.801 350.148 318.335 351.381 317.205C354.312 314.512 355.445 311.187 356.211 308.826C357.843 303.805 357.677 299.549 357.61 298.518C357.61 298.518 357.277 290.239 357.044 241.894C357.01 232.052 357.976 217.588 363.173 199.733C357.777 197.106 352.713 194.679 346.617 191.753C342.42 189.724 338.522 187.862 332.925 187.197C331.326 186.998 329.894 186.931 327.762 186.965C319.101 187.031 311.972 188.361 308.907 188.893C302.944 189.857 294.883 191.32 285.289 193.349Z" fill="#EC615B"/>
<path d="M285.022 194.513C295.349 192.318 305.775 190.556 316.236 189.259C316.702 189.193 316.968 188.594 316.502 188.328C316.369 188.262 316.236 188.162 316.069 188.095C315.503 187.763 315.003 188.627 315.569 188.96C315.703 189.026 315.836 189.126 316.002 189.193C316.102 188.893 316.169 188.561 316.269 188.262C305.709 189.558 295.182 191.321 284.789 193.548C284.122 193.681 284.389 194.646 285.022 194.513Z" fill="#161616"/>
<path d="M281.924 211.935C278.259 238.003 274.928 264.105 271.93 290.272C271.564 293.564 271.197 296.823 270.831 300.114C270.531 302.974 269.698 306.199 270.065 309.059C270.398 311.586 272.397 313.182 274.229 314.711C276.227 316.374 278.326 317.936 280.525 319.366C289.552 325.185 300.113 328.676 310.839 329.308C323.598 330.039 336.423 326.781 347.316 320.131C347.849 319.798 347.35 318.934 346.817 319.266C327.762 330.871 303.51 331.336 284.089 320.33C281.857 319.067 279.692 317.67 277.627 316.141C275.528 314.578 272.13 312.45 271.264 309.89C270.864 308.66 271.064 307.296 271.197 306C271.364 304.37 271.564 302.708 271.73 301.079C272.063 298.02 272.396 294.961 272.763 291.902C274.195 279.433 275.661 266.997 277.26 254.562C279.059 240.431 280.925 226.299 282.923 212.201C282.99 211.57 282.024 211.304 281.924 211.935Z" fill="#161616"/>
<path d="M330.993 186.898C336.856 188.062 342.353 190.755 347.816 193.049C353.179 195.31 359.142 197.139 363.873 200.597C364.406 200.963 364.905 200.098 364.372 199.733C359.742 196.341 353.912 194.546 348.682 192.351C343.019 189.99 337.323 187.164 331.26 185.934C330.627 185.801 330.36 186.765 330.993 186.898Z" fill="#161616"/>
<path d="M357.11 243.29C356.577 257.288 356.044 271.287 356.544 285.252C356.777 292.035 357.843 299.084 356.577 305.833C355.511 311.386 352.38 316.939 346.817 319C346.217 319.233 346.483 320.197 347.083 319.965C355.944 316.673 358.243 306.598 358.109 298.153C358.043 292.434 357.543 286.715 357.41 280.962C357.277 275.11 357.343 269.292 357.443 263.44C357.576 256.723 357.843 250.007 358.076 243.29C358.143 242.625 357.143 242.625 357.11 243.29Z" fill="#161616"/>
<path opacity="0.38" d="M352.313 235.41C350.548 241.461 347.783 248.078 343.519 254.662C324.431 283.955 289.486 289.807 280.558 291.037C292.551 292.301 304.676 293.664 316.935 295.127C330.46 296.723 343.819 298.419 356.977 300.148C356.144 285.285 356.144 273.049 356.344 264.304C356.711 246.216 358.01 231.586 355.645 231.121C355.078 230.988 354.079 231.619 352.313 235.41Z" fill="#3D3D3D"/>
<path opacity="0.42" d="M356.411 246.283C355.212 249.807 353.379 254.795 350.681 260.547C346.884 268.693 343.252 276.54 338.555 281.361C325.43 294.828 299.78 289.009 299.713 289.94C299.68 290.472 309.074 291.968 356.511 296.324C356.511 279.632 356.478 262.974 356.411 246.283Z" fill="#3D3D3D"/>
<path d="M416.173 383.372C293.916 367.08 171.626 350.787 49.3691 334.528C85.4466 313.647 121.557 292.766 157.635 271.885C267.932 282.725 378.263 293.597 488.561 304.437C464.41 330.738 440.291 357.072 416.173 383.372Z" fill="white" stroke="#161616" stroke-width="3" stroke-miterlimit="10"/>
<path d="M48.1699 337.354C170.727 353.58 293.283 369.806 415.807 386.032" stroke="#161616" stroke-width="16" stroke-miterlimit="10"/>
<path d="M413.475 386.764C439.159 359.665 464.842 332.533 490.493 305.435" stroke="#161616" stroke-width="16" stroke-miterlimit="10"/>
<path d="M372.567 315.543C360.075 325.285 347.849 335.326 335.823 345.634C335.324 346.066 336.056 346.764 336.523 346.332C348.549 336.025 360.808 325.983 373.267 316.241C373.766 315.875 373.067 315.144 372.567 315.543Z" fill="#161616"/>
<path d="M336.29 346.166C340.221 346.997 344.218 346.997 348.249 347.03C352.78 347.097 357.044 347.562 361.374 348.826C369.502 351.187 377.464 352.749 385.959 352.55C386.592 352.55 386.592 351.552 385.959 351.552C381.595 351.652 377.231 351.386 372.9 350.688C368.836 350.023 364.972 348.826 361.008 347.729C357.21 346.665 353.412 346.166 349.448 346.099C345.118 346 340.787 346.133 336.523 345.235C335.923 345.069 335.657 346.033 336.29 346.166Z" fill="#161616"/>
<path d="M373.3 316.274C386.492 317.338 399.584 319.433 412.442 322.558C413.075 322.724 413.342 321.76 412.709 321.594C399.783 318.435 386.592 316.34 373.3 315.276C372.667 315.21 372.667 316.207 373.3 316.274Z" fill="#161616"/>
<path d="M386.725 351.951C396.019 342.774 404.947 333.198 413.408 323.223C413.808 322.725 413.108 322.026 412.709 322.525C404.247 332.467 395.32 342.043 386.025 351.253C385.559 351.719 386.259 352.417 386.725 351.951Z" fill="#161616"/>
<path d="M347.916 342.209C359.375 340.812 370.968 342.242 381.728 346.432C382.327 346.664 382.594 345.7 381.994 345.467C371.168 341.278 359.442 339.815 347.916 341.211C347.283 341.278 347.283 342.275 347.916 342.209Z" fill="#161616"/>
<path d="M365.272 338.552C372.334 339.084 379.296 340.181 386.192 341.81C386.825 341.976 387.092 341.012 386.459 340.846C379.496 339.183 372.434 338.086 365.272 337.554C364.606 337.521 364.639 338.518 365.272 338.552Z" fill="#161616"/>
<path d="M359.975 331.203C370.602 331.436 381.129 332.966 391.389 335.792C392.022 335.958 392.288 334.994 391.655 334.828C381.328 332.001 370.702 330.439 359.975 330.206C359.342 330.206 359.342 331.203 359.975 331.203Z" fill="#161616"/>
<path d="M373.167 328.144C378.896 328.942 384.56 329.94 390.223 331.137C390.856 331.27 391.122 330.306 390.489 330.173C384.826 328.976 379.163 327.978 373.433 327.18C372.8 327.08 372.534 328.045 373.167 328.144Z" fill="#161616"/>
<path d="M365.871 350.455C363.839 353.58 361.807 356.706 359.742 359.798C359.542 360.098 359.808 360.596 360.175 360.563C376.598 358.701 393.254 359.765 409.311 363.689C409.944 363.855 410.21 362.891 409.577 362.724C393.421 358.768 376.698 357.704 360.175 359.532C360.308 359.798 360.475 360.031 360.608 360.297C362.64 357.171 364.672 354.046 366.737 350.954C367.104 350.422 366.238 349.923 365.871 350.455Z" fill="#161616"/>
<path d="M406.146 331.569C412.576 331.436 418.972 331.303 425.401 331.17C425.235 330.97 425.068 330.738 424.935 330.538C420.504 341.078 416.04 351.585 411.61 362.126C411.376 362.724 412.343 362.99 412.576 362.392C417.006 351.851 421.47 341.344 425.901 330.804C426.034 330.505 425.701 330.172 425.434 330.172C419.005 330.305 412.609 330.438 406.18 330.571C405.513 330.605 405.513 331.602 406.146 331.569Z" fill="#161616"/>
<path d="M381.794 356.34C383.493 356.008 385.192 355.941 386.924 356.074C387.557 356.108 387.557 355.11 386.924 355.077C385.092 354.944 383.327 355.044 381.528 355.376C380.895 355.476 381.161 356.44 381.794 356.34Z" fill="#161616"/>
<path d="M391.255 356.44C396.486 356.639 401.716 357.138 406.912 357.936C407.545 358.036 407.812 357.072 407.179 356.972C401.915 356.141 396.585 355.642 391.255 355.442C390.623 355.409 390.623 356.407 391.255 356.44Z" fill="#161616"/>
<path d="M391.555 350.189C392.788 350.189 394.02 350.189 395.286 350.189C395.919 350.189 395.919 349.191 395.286 349.191C394.054 349.191 392.821 349.191 391.555 349.191C390.922 349.191 390.922 350.189 391.555 350.189Z" fill="#161616"/>
<path d="M399.317 350.089C403.414 350.189 407.479 350.588 411.543 351.253C412.176 351.353 412.442 350.389 411.809 350.289C407.678 349.624 403.514 349.225 399.317 349.092C398.684 349.092 398.684 350.089 399.317 350.089Z" fill="#161616"/>
<path d="M398.684 344.404C403.348 344.47 407.978 344.736 412.609 345.268C413.242 345.335 413.242 344.337 412.609 344.271C407.978 343.739 403.348 343.439 398.684 343.406C398.051 343.373 398.051 344.37 398.684 344.404Z" fill="#161616"/>
<path d="M367.404 355.442C369.636 355.509 371.834 355.243 374.033 354.711C374.666 354.545 374.4 353.58 373.767 353.747C371.668 354.279 369.569 354.511 367.404 354.445C366.771 354.445 366.771 355.442 367.404 355.442Z" fill="#161616"/>
<path d="M383.227 303.34C382.361 304.404 381.362 306.565 382.394 307.862C383.027 308.66 384.227 308.494 385.126 308.527C386.758 308.593 388.391 308.693 390.023 308.76C396.652 309.059 403.248 309.391 409.877 309.691C410.51 309.724 410.51 308.726 409.877 308.693C404.98 308.46 400.117 308.228 395.22 307.995C392.821 307.895 390.456 307.762 388.057 307.662C386.892 307.596 385.659 307.662 384.493 307.496C383.627 307.363 382.994 307.33 383.027 306.266C383.061 305.435 383.427 304.67 383.927 304.038C384.326 303.539 383.627 302.808 383.227 303.34Z" fill="#161616"/>
<path d="M384.127 304.603C389.723 304.803 395.32 304.969 400.916 305.169C403.648 305.268 406.413 305.335 409.144 305.435C411.609 305.534 414.208 305.701 415.973 307.596C416.406 308.061 417.106 307.363 416.673 306.898C415.34 305.435 413.542 304.869 411.609 304.603C408.745 304.238 405.78 304.304 402.882 304.204C396.619 304.005 390.356 303.772 384.127 303.573C383.494 303.606 383.494 304.603 384.127 304.603Z" fill="#161616"/>
<path d="M409.544 309.724C412.109 309.757 414.54 308.959 416.606 307.429C417.106 307.064 416.606 306.199 416.106 306.565C414.174 307.995 411.975 308.759 409.544 308.726C408.877 308.726 408.877 309.724 409.544 309.724Z" fill="#161616"/>
<path d="M410.343 304.603C408.944 305.534 408.311 307.263 408.778 308.859C408.944 309.458 409.91 309.225 409.744 308.593C409.411 307.429 409.81 306.133 410.843 305.434C411.376 305.102 410.876 304.237 410.343 304.603Z" fill="#161616"/>
<path d="M274.328 339.084C233.854 332.168 193.379 325.252 152.904 318.336C177.489 308.427 202.074 298.552 226.658 288.644C265.101 297.189 303.543 305.734 341.953 314.279C319.434 322.559 296.881 330.805 274.328 339.084Z" fill="white" stroke="#161616" stroke-width="3" stroke-miterlimit="10"/>
<path d="M272.663 339.582C272.796 339.981 272.896 340.413 273.029 340.812C273.196 341.344 273.995 341.245 273.995 340.679C273.995 340.347 273.995 340.048 273.995 339.715C273.995 339.083 272.996 339.083 272.996 339.715C272.996 340.114 272.929 340.48 272.763 340.846C273.096 340.846 273.396 340.846 273.729 340.846C273.595 340.413 273.562 340.014 273.662 339.549C273.362 339.582 273.062 339.615 272.763 339.682C272.863 339.782 272.863 339.848 272.796 339.948C273.096 339.981 273.396 340.014 273.695 340.081C273.629 339.848 273.662 339.649 273.795 339.449C273.495 339.35 273.162 339.283 272.863 339.183C272.796 339.715 272.729 340.214 272.663 340.746C272.629 341.012 272.929 341.245 273.162 341.245C273.462 341.245 273.629 341.012 273.662 340.746C273.729 340.214 273.795 339.715 273.862 339.183C273.929 338.684 273.162 338.551 272.929 338.917C272.663 339.349 272.596 339.848 272.729 340.347C272.829 340.779 273.429 340.812 273.629 340.48C273.895 340.081 273.895 339.582 273.595 339.216C273.362 338.917 272.763 338.884 272.696 339.349C272.563 339.948 272.596 340.58 272.763 341.178C272.929 341.677 273.562 341.61 273.729 341.178C273.895 340.713 273.995 340.247 273.995 339.782C273.662 339.782 273.329 339.782 272.996 339.782C272.996 340.114 272.996 340.414 272.996 340.746C273.329 340.713 273.662 340.646 273.962 340.613C273.829 340.214 273.729 339.782 273.595 339.383C273.462 338.684 272.496 338.95 272.663 339.582Z" fill="#161616"/>
<path d="M273.429 341.976C278.792 339.217 284.655 337.754 290.418 336.124C293.25 335.326 296.048 334.462 298.746 333.331C301.345 332.267 303.843 330.937 306.408 329.74C312.105 327.08 318.268 325.351 324.231 323.39C330.427 321.328 336.589 319.267 342.786 317.238C343.385 317.039 343.119 316.075 342.519 316.274C336.323 318.336 330.16 320.397 323.964 322.425C318.101 324.354 312.071 326.083 306.442 328.643C303.51 329.973 300.645 331.536 297.647 332.7C294.915 333.764 292.117 334.595 289.286 335.393C283.722 336.989 278.093 338.452 272.896 341.112C272.363 341.411 272.863 342.276 273.429 341.976Z" fill="#161616"/>
<path d="M273.895 341.777C296.914 333.83 319.866 325.783 342.819 317.604C344.618 316.972 343.851 314.079 342.019 314.711C319.1 322.891 296.115 330.937 273.096 338.884C271.297 339.516 272.063 342.408 273.895 341.777Z" fill="#161616"/>
<path d="M271.297 309.657C275.628 310.09 279.325 312.716 283.589 313.548C284.222 313.681 284.489 312.716 283.856 312.583C279.525 311.719 275.761 309.092 271.297 308.66C270.664 308.626 270.664 309.624 271.297 309.657Z" fill="#161616"/>
<path d="M283.889 313.082C286.521 311.652 288.986 309.956 291.218 307.961C291.684 307.529 290.985 306.831 290.518 307.263C288.32 309.192 285.954 310.854 283.389 312.217C282.823 312.55 283.323 313.414 283.889 313.082Z" fill="#161616"/>
<path d="M272.33 307.762C274.428 306.266 276.594 304.836 278.826 303.506C279.392 303.173 278.859 302.309 278.326 302.641C276.094 303.971 273.929 305.368 271.83 306.897C271.297 307.296 271.797 308.161 272.33 307.762Z" fill="#161616"/>
<path d="M278.992 303.672C282.789 305.102 286.587 306.498 290.418 307.928C291.018 308.161 291.284 307.197 290.684 306.964C286.887 305.534 283.089 304.138 279.258 302.708C278.659 302.508 278.392 303.473 278.992 303.672Z" fill="#161616"/>
<path d="M268.299 313.448C278.326 316.54 288.22 320.098 297.914 324.121C298.513 324.354 298.78 323.39 298.18 323.157C288.486 319.134 278.592 315.576 268.565 312.484C267.932 312.284 267.666 313.248 268.299 313.448Z" fill="#161616"/>
<path d="M269.265 321.195C275.494 324.187 281.79 327.014 288.153 329.773C288.753 330.039 289.252 329.175 288.653 328.909C282.29 326.182 275.994 323.323 269.764 320.33C269.198 320.064 268.698 320.929 269.265 321.195Z" fill="#161616"/>
<path d="M270.164 329.74C273.562 331.469 276.96 333.232 280.358 334.961C280.924 335.26 281.424 334.395 280.857 334.096C277.46 332.367 274.062 330.605 270.664 328.876C270.098 328.577 269.598 329.441 270.164 329.74Z" fill="#161616"/>
<path d="M272.096 330.039C276.793 326.049 281.723 322.392 286.853 319C287.386 318.635 286.887 317.77 286.354 318.136C281.157 321.561 276.16 325.318 271.397 329.341C270.897 329.773 271.596 330.472 272.096 330.039Z" fill="#161616"/>
<path d="M270.864 323.223C273.529 321.361 276.194 319.499 278.859 317.604C279.392 317.238 278.892 316.374 278.359 316.739C275.694 318.602 273.029 320.464 270.364 322.359C269.865 322.725 270.364 323.589 270.864 323.223Z" fill="#161616"/>
<path d="M272.529 341.378C230.656 334.262 188.782 327.147 146.908 320.031C142.977 290.339 139.013 260.68 135.082 230.988C180.154 237.039 225.192 243.091 270.264 249.176C271.03 279.899 271.797 310.621 272.529 341.378Z" fill="white" stroke="#161616" stroke-width="3" stroke-miterlimit="10"/>
<path d="M197.91 290.006C194.279 288.876 192.313 285.817 192.013 282.126C191.714 278.369 192.446 274.745 195.944 272.783C199.042 271.054 202.74 271.553 205.505 273.647C208.27 275.742 210.735 280.031 208.503 283.323C208.137 283.855 209.003 284.354 209.369 283.822C211.768 280.297 209.502 275.642 206.571 273.215C203.539 270.721 199.442 269.957 195.878 271.719C191.747 273.747 190.681 277.87 191.014 282.159C191.347 286.316 193.546 289.74 197.643 291.004C198.243 291.17 198.509 290.206 197.91 290.006Z" fill="#161616"/>
<path d="M198.842 290.372C197.31 287.845 197.809 284.321 200.275 282.558C202.74 280.796 206.271 281.528 208.136 283.789C208.536 284.287 209.236 283.589 208.836 283.09C206.637 280.464 202.507 279.732 199.642 281.76C196.777 283.822 196.177 287.945 197.976 290.871C198.309 291.403 199.175 290.904 198.842 290.372Z" fill="#161616"/>
<path d="M202.273 291.769C200.708 290.106 200.941 287.014 203.039 285.817C205.105 284.62 207.903 285.983 208.569 288.178C208.769 288.776 209.735 288.543 209.535 287.912C208.669 285.119 205.171 283.456 202.54 284.986C199.908 286.515 199.575 290.372 201.574 292.5C202.007 292.932 202.706 292.234 202.273 291.769Z" fill="#161616"/>
<path d="M204.838 294.096C206.138 294.562 207.637 293.797 208.136 292.567C208.669 291.337 207.97 290.007 206.804 289.475C205.638 288.943 204.239 289.242 203.606 290.372C203.006 291.47 203.206 292.966 204.205 293.764C204.705 294.163 205.405 293.465 204.905 293.066C203.573 292.035 204.505 289.608 206.271 290.339C207.037 290.638 207.57 291.436 207.204 292.268C206.837 293.066 205.904 293.465 205.105 293.165C204.505 292.933 204.239 293.897 204.838 294.096Z" fill="#161616"/>
<path d="M270.264 249.142L273.196 340.746" stroke="#161616" stroke-width="3" stroke-miterlimit="10"/>
<path d="M270.464 249.076C271.363 279.2 272.263 309.325 273.162 339.449" stroke="#161616" stroke-width="3" stroke-miterlimit="10"/>
<path opacity="0.37" d="M212.8 242.958C214.965 244.089 233.554 254.197 234.853 272.152C235.586 282.06 230.722 289.575 227.657 294.163C211.134 318.968 178.455 323.356 169.594 324.287C182.486 332.833 227.524 360.995 276.76 359.333C287.72 358.967 304.709 358.203 323.131 348.095C336.956 340.514 345.917 330.771 351.047 324.287C347.882 322.326 344.751 320.397 341.586 318.436C318.334 326.382 295.049 334.329 271.797 342.243C270.597 311.52 269.398 280.83 268.199 250.107C249.71 247.779 231.255 245.385 212.8 242.958Z" fill="#3D3D3D"/>
<path opacity="0.5" d="M186.317 326.449C190.648 329.308 197.343 333.398 206.005 337.321C216.798 342.242 248.745 356.806 283.356 348.726C308.507 342.841 327.962 326.715 326.696 324.055C325.896 322.392 316.136 324.121 272.663 341.378C271.963 327.313 271.264 313.215 270.598 299.15C269.398 310.987 268.166 322.824 266.966 334.628C240.083 331.935 213.2 329.175 186.317 326.449Z" fill="#3D3D3D"/>
<path d="M195.278 288.544C192.846 285.884 192.047 282.16 193.246 278.901C194.478 275.609 197.743 272.783 201.641 272.916C205.072 273.049 207.837 275.443 208.836 277.704C209.569 279.433 209.402 281.029 209.402 281.029C209.302 281.927 209.003 282.625 208.769 283.057C207.07 281.096 204.472 280.198 202.04 280.763C199.042 281.461 197.743 284.022 197.61 284.254C196.244 287.047 197.443 289.641 197.61 289.94C196.81 289.441 196.044 288.976 195.278 288.544Z" fill="#5222D0"/>
<path d="M363.839 246.449C362.04 247.779 360.108 249.575 358.343 251.935C351.78 260.747 352.679 271.087 353.146 274.446C347.316 273.249 337.522 272.085 325.963 274.745C319.067 276.341 313.537 278.835 309.473 281.096C310.106 281.495 310.972 281.96 312.072 282.259C318.301 283.955 324.864 278.735 325.063 279.101C325.263 279.433 317.735 282.958 318.134 286.017C318.401 288.078 322.099 289.175 325.93 290.339C329.161 291.303 332.226 292.234 336.323 291.769C341.953 291.137 345.85 288.311 347.583 286.848C349.248 287.679 351.713 288.776 354.811 289.741C360.508 291.47 368.37 293.864 373.6 290.605C376.998 288.477 378.03 283.49 379.962 273.581C382.427 260.88 383.66 254.529 380.262 250.506C375.765 245.152 366.737 246.05 363.839 246.449Z" fill="white" stroke="#161616" stroke-width="3" stroke-miterlimit="10"/>
<path d="M352.013 274.778C356.044 276.274 359.375 279.001 361.673 282.625C362.007 283.157 362.873 282.658 362.54 282.126C360.108 278.269 356.543 275.41 352.279 273.814C351.68 273.614 351.413 274.578 352.013 274.778Z" fill="#161616"/>
<path d="M330.593 281.362C326.629 282.027 323.431 284.687 321.998 288.411C321.765 289.009 322.731 289.275 322.964 288.677C324.264 285.285 327.262 282.924 330.86 282.326C331.492 282.226 331.226 281.262 330.593 281.362Z" fill="#161616"/>
<path d="M322.465 289.042C324.531 291.004 327.396 291.669 330.094 290.804C330.694 290.605 330.427 289.641 329.827 289.84C327.462 290.605 324.964 290.073 323.165 288.344C322.699 287.878 321.999 288.577 322.465 289.042Z" fill="#161616"/>
<path d="M335.223 284.653C333.791 285.518 332.459 286.515 331.193 287.579C330.36 288.311 329.427 289.175 329.627 290.372C330.127 293.531 333.924 292.833 335.99 292.035C336.589 291.802 336.323 290.838 335.723 291.07C334.824 291.403 333.824 291.835 332.858 291.802C331.293 291.735 329.893 290.239 331.226 288.876C332.492 287.546 334.157 286.482 335.723 285.484C336.289 285.185 335.79 284.321 335.223 284.653Z" fill="#161616"/>
<path d="M362.174 199.001C363.539 200.065 365.305 201.528 367.171 203.424C367.704 203.956 369.069 205.352 370.435 207.081C372.567 209.741 373.933 212.268 375.432 215.36C377.364 219.317 379.296 223.274 381.228 229.192C382.861 234.18 385.359 242.027 385.659 252.467C385.792 256.59 385.526 260.048 385.259 262.476C383.893 260.913 382.528 259.882 381.395 259.217C375.032 255.327 367.304 256.723 360.008 258.053C357.277 258.552 355.011 259.151 353.446 259.583C353.846 255.925 354.212 252.268 354.612 248.61C354.945 245.551 355.245 242.459 355.578 239.367C354.945 238.27 354.079 236.707 353.279 234.745C351.714 230.988 348.582 223.606 350.381 215.327C352.513 205.818 360.008 200.431 362.174 199.001Z" fill="#EC615B"/>
<path d="M363.339 200.83C366.671 202.559 368.903 205.552 370.835 208.644C372.834 211.836 374.632 215.128 376.231 218.519C379.496 225.435 381.895 232.75 383.46 240.232C383.593 240.863 384.56 240.597 384.426 239.966C382.827 232.185 380.296 224.637 376.831 217.455C375.132 213.931 373.267 210.506 371.135 207.214C369.236 204.288 367.004 201.562 363.872 199.932C363.273 199.666 362.773 200.531 363.339 200.83Z" fill="#161616"/>
<path d="M352.946 234.645C354.478 237.771 356.077 240.83 357.743 243.889C358.043 244.454 358.909 243.955 358.609 243.39C356.943 240.331 355.344 237.272 353.812 234.147C353.512 233.548 352.646 234.047 352.946 234.645Z" fill="#161616"/>
<path d="M355.311 240.364C354.478 246.815 353.645 253.265 352.846 259.716C352.812 260.048 353.212 260.281 353.479 260.181C359.142 258.386 365.038 257.521 370.968 257.721C375.665 257.887 381.894 258.319 384.526 262.908C384.859 263.473 385.692 262.974 385.392 262.409C382.894 258.02 377.43 257.122 372.833 256.823C366.204 256.358 359.542 257.222 353.245 259.217C353.445 259.383 353.679 259.55 353.878 259.683C354.711 253.232 355.544 246.782 356.344 240.331C356.41 239.733 355.411 239.733 355.311 240.364Z" fill="#161616"/>
<path d="M383.393 239.733C384.559 247.048 386.458 254.795 384.493 262.143C384.326 262.775 385.292 263.041 385.459 262.409C387.458 254.895 385.559 246.981 384.36 239.467C384.26 238.835 383.294 239.101 383.393 239.733Z" fill="#161616"/>
<path opacity="0.32" d="M359.642 197.771C362.674 203.423 365.705 210.173 368.27 217.921C373.3 233.216 374.633 246.948 374.733 257.222C371.335 257.422 367.937 257.621 364.539 257.821C365.638 265.701 366.771 273.614 367.87 281.495C365.738 280.264 362.474 278.702 358.276 277.771C356.91 277.471 351.88 276.474 346.517 277.372C335.257 279.267 328.462 288.477 326.929 290.672C328.462 291.303 330.427 291.902 332.792 292.035C340.054 292.467 345.351 288.278 346.917 286.948C351.88 289.441 356.211 290.638 359.276 291.237C364.639 292.334 370.902 293.598 374.366 290.273C374.633 290.007 375.232 289.375 376.532 286.15C378.564 281.029 379.63 276.241 381.029 267.563C381.329 265.634 381.762 263.041 382.195 259.949C383.028 260.78 383.894 261.644 384.726 262.476C385.126 260.979 385.626 258.752 385.892 256.025C386.592 248.943 385.226 243.357 383.927 238.802C378.697 220.381 375.566 209.276 365.105 201.229C362.94 199.633 360.941 198.469 359.642 197.771Z" fill="#3D3D3D"/>
<path opacity="0.29" d="M377.264 220.547C379.496 231.387 379.796 240.597 379.629 247.247C379.463 253.432 378.83 257.954 378.163 262.509C376.198 276.241 375.199 283.091 371.401 286.283C364.206 292.334 351.38 287.746 348.315 286.582C351.214 288.51 361.64 295.061 371.834 291.436C372.9 291.037 374.066 290.539 375.199 289.807C376.398 287.779 377.997 284.653 379.03 280.564C379.629 278.136 379.796 276.374 380.029 274.313C380.395 270.988 381.028 266.133 382.094 260.048C383.06 260.88 384.06 261.711 385.026 262.542C385.359 260.846 385.792 258.253 385.892 255.061C386.192 247.347 384.493 241.495 382.527 234.812C381.461 231.154 379.796 226.233 377.264 220.547Z" fill="#3D3D3D"/>
<path d="M285.688 133.266C286.022 136.824 286.621 141.811 287.954 147.696C288.82 151.52 289.353 153.947 290.485 156.973C292.184 161.528 295.416 170.24 303.844 175.926C305.876 177.322 309.24 179.184 313.971 180.281C314.737 180.348 315.503 180.448 316.269 180.514C316.536 181.911 316.869 183.972 317.202 186.466C318.002 192.883 317.602 194.845 319.268 196.574C321.3 198.669 324.531 198.469 325.23 198.403C330.794 198.037 333.592 192.517 333.725 192.218C332.826 190.589 331.926 188.594 331.193 186.266C329.594 181.113 329.561 176.524 329.828 173.399C332.393 169.708 335.224 166.882 338.089 164.687C339.188 163.856 340.121 162.725 341.753 162.16C344.085 161.362 345.285 162.16 347.017 161.628C349.882 160.73 351.114 157.04 351.647 155.51C353.679 149.459 351.181 143.474 349.582 139.916C348.149 136.657 344.418 128.578 335.324 122.26C325.963 115.743 307.242 108.495 294.849 117.904C292.717 119.534 287.854 123.889 285.688 133.266Z" fill="white"/>
<path d="M287.087 146.965C284.955 146.599 279.559 145.336 276.061 140.714C270.731 133.698 273.596 123.889 276.561 118.702C281.224 110.556 289.719 107.73 300.379 104.172C306.708 102.077 312.738 100.082 320.933 100.415C325.463 100.614 340.82 101.279 350.015 112.684C355.478 119.434 356.077 126.682 357.277 140.98C357.843 147.53 357.41 151.088 356.277 154.479C355.445 156.94 352.746 164.82 344.984 167.979C340.92 169.641 337.156 169.309 335.091 168.976C336.956 166.217 338.822 163.49 340.72 160.73C341.786 160.797 345.584 160.863 348.482 158.237C352.446 154.612 353.146 147.397 350.248 145.469C348.116 144.039 343.885 145.435 340.221 148.727C339.888 146.632 339.355 144.338 338.455 141.977C334.258 130.706 325.13 124.521 320.666 121.961C318.901 124.222 313.304 130.839 303.377 133.465C295.515 135.527 288.986 134.064 286.088 133.199C286.421 137.788 286.754 142.376 287.087 146.965Z" fill="#5222D0"/>
<path d="M285.422 134.131C286.787 144.405 288.22 155.078 293.25 164.322C297.381 171.903 304.043 178.386 312.605 180.548C313.238 180.714 313.504 179.75 312.871 179.583C304.41 177.422 297.88 170.905 293.883 163.357C289.119 154.38 287.753 144.072 286.421 134.131C286.321 133.499 285.322 133.499 285.422 134.131Z" fill="#161616"/>
<path d="M312.605 180.681C318.634 180.681 324.964 177.455 329.694 173.997C334.458 170.506 338.355 166.017 341.153 160.83C341.453 160.265 340.587 159.766 340.287 160.332C337.589 165.386 333.825 169.775 329.194 173.133C324.564 176.524 318.434 179.683 312.605 179.683C311.938 179.683 311.938 180.681 312.605 180.681Z" fill="#161616"/>
<path d="M329.661 173.199C328.994 179.916 330.294 186.632 333.358 192.651C333.658 193.216 334.524 192.717 334.224 192.152C331.226 186.267 330.027 179.75 330.66 173.199C330.727 172.568 329.727 172.568 329.661 173.199Z" fill="#161616"/>
<path d="M315.17 180.514C316.269 184.305 317.168 188.162 317.835 192.052C318.268 194.645 318.434 197.571 321.332 198.536C325.663 199.999 332.059 197.405 333.725 193.116C333.958 192.517 332.992 192.251 332.759 192.85C331.826 195.277 329.494 196.607 327.095 197.305C325.097 197.871 322.065 198.469 320.366 196.84C319.367 195.876 319.234 194.346 319.034 193.049C318.801 191.686 318.567 190.323 318.301 188.96C317.701 186.034 317.002 183.108 316.169 180.248C315.969 179.649 315.003 179.916 315.17 180.514Z" fill="#161616"/>
<path d="M316.602 184.637C322.532 183.872 326.429 179.35 329.294 174.496C329.627 173.931 328.761 173.432 328.428 173.997C325.796 178.519 322.132 182.941 316.602 183.64C315.969 183.739 315.969 184.737 316.602 184.637Z" fill="#161616"/>
<path d="M316.369 181.246C320.999 180.714 325.164 178.553 328.262 175.061C328.695 174.596 327.995 173.864 327.562 174.363C324.664 177.655 320.733 179.75 316.369 180.248C315.769 180.315 315.736 181.312 316.369 181.246Z" fill="#161616"/>
<path d="M316.536 180.514C320.267 179.982 323.631 178.452 326.496 176.025C326.996 175.593 326.263 174.895 325.797 175.327C323.065 177.654 319.834 179.084 316.269 179.583C315.636 179.649 315.903 180.614 316.536 180.514Z" fill="#161616"/>
<path d="M316.336 181.345C316.502 182.143 316.469 183.74 317.468 184.006C318.435 184.272 319.9 183.141 320.666 182.675C323.298 181.079 325.497 178.918 327.229 176.391C327.595 175.859 326.729 175.36 326.363 175.892C325.13 177.721 323.631 179.35 321.866 180.68C321.033 181.312 320.167 181.844 319.267 182.343C318.901 182.542 318.068 183.108 317.702 182.875C317.468 182.742 317.369 181.312 317.335 181.079C317.169 180.448 316.203 180.714 316.336 181.345Z" fill="#161616"/>
<path d="M316.802 182.276C319.667 181.113 322.365 179.65 324.897 177.887C325.43 177.522 324.93 176.657 324.397 177.023C321.932 178.752 319.334 180.182 316.536 181.312C315.936 181.545 316.203 182.509 316.802 182.276Z" fill="#161616"/>
<path d="M317.302 183.274C320.5 182.143 323.298 180.381 325.63 177.921C326.063 177.455 325.363 176.757 324.93 177.222C322.698 179.517 320.067 181.246 317.035 182.31C316.436 182.542 316.702 183.507 317.302 183.274Z" fill="#161616"/>
<path d="M317.835 182.742C320.2 181.711 322.365 180.314 324.231 178.519C324.697 178.087 323.998 177.388 323.531 177.821C321.699 179.55 319.634 180.88 317.335 181.877C316.736 182.143 317.235 183.008 317.835 182.742Z" fill="#161616"/>
<path d="M290.619 159.4C285.189 157.472 283.39 150.39 283.923 145.269C284.489 139.65 289.553 133.532 295.749 136.159C298.714 137.422 299.813 140.681 300.612 143.573C301.445 146.632 301.812 150.024 301.012 153.149C300.313 155.909 298.614 158.536 295.949 159.733C293.284 160.93 290.119 160.265 288.32 157.971C287.92 157.472 287.221 158.17 287.62 158.669C290.652 162.559 296.348 161.794 299.413 158.37C303.311 154.014 302.911 147.397 301.245 142.177C300.479 139.75 299.48 137.223 297.248 135.826C295.316 134.596 292.851 134.297 290.685 134.862C285.622 136.225 282.99 141.578 282.89 146.466C282.79 151.819 284.889 158.436 290.419 160.365C290.952 160.564 291.218 159.6 290.619 159.4Z" fill="#161616"/>
<path d="M302.144 149.459C305.409 147.497 309.373 147.297 312.771 148.993C313.337 149.292 313.837 148.428 313.271 148.129C309.54 146.267 305.209 146.433 301.611 148.594C301.112 148.927 301.611 149.791 302.144 149.459Z" fill="#161616"/>
<path d="M318.068 156.541C314.304 152.917 312.738 147.297 314.204 142.243C315.736 136.99 321 132.468 326.663 134.33C332.926 136.391 333.259 145.336 331.626 150.589C330.66 153.681 328.728 156.774 325.53 157.904C322.332 159.035 319.567 157.339 317.002 155.543C316.469 155.178 315.969 156.042 316.502 156.408C318.601 157.904 320.866 159.4 323.531 159.301C326.063 159.201 328.362 157.804 329.927 155.909C333.459 151.653 334.158 145.169 332.692 139.982C331.36 135.261 327.429 132.202 322.399 133.033C317.602 133.798 314.071 138.12 313.005 142.642C311.772 147.863 313.438 153.515 317.302 157.239C317.835 157.705 318.535 156.973 318.068 156.541Z" fill="#161616"/>
<path d="M293.65 145.602C293.316 147.696 293.683 149.725 294.815 151.52C295.049 151.886 295.582 151.819 295.715 151.387C296.514 149.093 295.382 146.832 294.249 144.87C294.016 144.438 293.316 144.637 293.316 145.136C293.35 146.898 293.716 148.627 294.382 150.257C294.616 150.855 295.582 150.589 295.348 149.991C294.716 148.428 294.349 146.832 294.316 145.136C294.016 145.236 293.683 145.302 293.383 145.402C294.416 147.164 295.482 149.093 294.749 151.154C295.049 151.121 295.348 151.088 295.648 151.021C294.649 149.459 294.282 147.696 294.582 145.868C294.716 145.236 293.749 144.97 293.65 145.602Z" fill="#161616"/>
<path d="M323.132 144.671C323.132 144.238 323.098 144.139 322.898 143.773C322.665 143.341 321.966 143.54 321.966 144.039C321.999 146.1 322.166 148.328 323.765 149.791C324.098 150.09 324.564 149.858 324.631 149.425C324.897 146.965 324.164 144.671 322.632 142.742C322.299 142.343 321.699 142.775 321.799 143.241C322.199 144.87 322.699 146.466 323.298 147.996C323.531 148.594 324.497 148.328 324.264 147.73C323.631 146.167 323.132 144.604 322.765 142.975C322.499 143.141 322.199 143.307 321.932 143.474C323.298 145.203 323.865 147.264 323.631 149.459C323.931 149.326 324.198 149.226 324.497 149.093C323.065 147.796 322.998 145.834 322.965 144.039C322.665 144.139 322.332 144.205 322.032 144.305C322.066 144.438 322.099 144.571 322.132 144.704C322.132 145.302 323.132 145.302 323.132 144.671Z" fill="#161616"/>
<path d="M305.476 151.221C304.81 153.216 304.243 155.244 303.877 157.306C303.677 158.403 302.978 160.464 303.477 161.562C304.477 163.789 308.907 162.426 310.44 161.695C311.006 161.429 310.506 160.564 309.94 160.83C308.707 161.429 307.375 161.728 306.009 161.628C305.21 161.562 304.577 161.429 304.41 160.531C304.31 160.032 304.643 158.735 304.743 158.17C305.143 155.876 305.743 153.648 306.475 151.454C306.642 150.888 305.676 150.622 305.476 151.221Z" fill="#161616"/>
<path d="M310.506 170.406C313.004 170.074 315.169 168.478 316.269 166.184C316.535 165.618 315.669 165.086 315.403 165.685C314.403 167.78 312.538 169.143 310.239 169.442C309.606 169.542 309.906 170.506 310.506 170.406Z" fill="#161616"/>
<path d="M291.551 142.742C292.184 141.978 293.35 141.845 294.15 142.51C294.649 142.942 295.349 142.21 294.849 141.811C293.683 140.814 291.884 140.88 290.852 142.044C290.419 142.51 291.118 143.208 291.551 142.742Z" fill="#161616"/>
<path d="M320.133 140.88C321.166 139.982 322.732 139.982 323.764 140.847C324.264 141.246 324.964 140.547 324.464 140.148C322.998 138.885 320.866 138.918 319.4 140.182C318.934 140.614 319.667 141.312 320.133 140.88Z" fill="#161616"/>
<path d="M333.259 145.469C336.856 144.205 340.554 143.44 344.385 143.241C345.018 143.208 345.018 142.21 344.385 142.243C340.487 142.443 336.69 143.208 332.992 144.504C332.392 144.737 332.626 145.701 333.259 145.469Z" fill="#161616"/>
<path opacity="0.4" d="M338.222 104.039C340.221 106.599 347.916 117.106 346.484 131.537C345.684 139.583 342.353 145.502 340.254 148.627C341.453 147.696 342.486 147.065 343.252 146.632C345.284 145.502 346.584 144.804 348.249 144.903C348.749 144.937 349.948 145.036 350.814 145.735C353.346 147.863 352.48 155.41 347.983 158.935C345.517 160.863 342.619 161.063 341.154 161.03C339.255 163.723 337.323 166.416 335.424 169.143C336.69 169.342 338.622 169.508 340.854 169.176C341.82 169.043 345.684 168.345 349.348 165.419C352.946 162.526 354.412 159.001 355.378 156.607C358.043 149.957 357.51 144.105 356.577 133.565C356.178 128.877 355.944 126.483 355.012 123.324C354.012 119.899 352.446 114.845 347.983 110.323C344.785 106.998 341.187 105.136 338.222 104.039Z" fill="#3D3D3D"/>
<path opacity="0.48" d="M306.042 132.468C309.373 129.509 313.104 125.718 316.702 120.997C318.934 118.071 320.799 115.244 322.332 112.618C321.766 115.61 321.199 118.603 320.666 121.595C319.367 123.457 317.202 126.117 313.837 128.544C310.872 130.639 308.074 131.803 306.042 132.468Z" fill="#3D3D3D"/>
<path opacity="0.27" d="M329.727 128.677C332.259 137.09 332.459 144.139 332.226 148.794C332.059 152.252 331.126 170.373 321.566 176.624C320.633 177.222 318.268 178.619 318.368 178.818C318.501 179.051 322.932 177.089 325.363 175.759C329.194 173.698 335.091 169.542 340.554 160.764C341.453 160.863 345.851 161.163 349.015 158.137C352.846 154.513 353.512 147.397 350.481 145.302C348.316 143.806 344.185 145.07 340.554 148.062C340.187 146.533 339.721 144.937 339.088 143.241C336.59 136.657 332.825 131.869 329.727 128.677Z" fill="#3D3D3D"/>
<path opacity="0.36" d="M321.699 178.552C322.565 181.212 323.431 183.872 324.298 186.565C325.497 190.223 326.663 193.914 327.829 197.571C328.495 197.438 330.127 196.973 331.56 195.51C332.992 194.047 333.459 192.451 333.625 191.786C332.326 189.225 330.794 185.335 330.261 180.414C329.994 177.854 330.061 175.593 330.261 173.698C327.429 175.327 324.564 176.956 321.699 178.552Z" fill="#3D3D3D"/>
<path opacity="0.43" d="M305.076 152.385C303.41 155.943 301.745 159.467 300.079 163.025C302.811 162.958 305.509 162.925 308.241 162.859C306.642 162.36 305.009 161.861 303.41 161.362C303.943 158.37 304.51 155.377 305.076 152.385Z" fill="#3D3D3D"/>
</svg>
